<?xml version="1.0" encoding="UTF-8" standalone="no"?>
<!DOCTYPE svg PUBLIC "-//W3C//DTD SVG 1.1//EN"
 "http://www.w3.org/Graphics/SVG/1.1/DTD/svg11.dtd">
<!-- Generated by graphviz version 2.47.0 (20210316.0004)
 -->
<!-- Title: dependencies Pages: 1 -->
<svg width="694pt" height="284pt"
 viewBox="0.00 0.00 694.00 284.00" xmlns="http://www.w3.org/2000/svg" xmlns:xlink="http://www.w3.org/1999/xlink">
<g id="graph0" class="graph" transform="scale(1 1) rotate(0) translate(4 280)">
<title>dependencies</title>
<polygon fill="white" stroke="transparent" points="-4,4 -4,-280 690,-280 690,4 -4,4"/>
<text text-anchor="start" x="322.01" y="-42.4" font-family="sans-serif" font-weight="bold" font-size="14.00">Legend</text>
<polygon fill="#ffffb3" stroke="transparent" points="109,-10 109,-30 129,-30 129,-10 109,-10"/>
<text text-anchor="start" x="132.63" y="-15.4" font-family="sans-serif" font-size="14.00"> &#160;Declarations</text>
<polygon fill="#8dd3c7" stroke="transparent" points="222,-10 222,-30 242,-30 242,-10 222,-10"/>
<text text-anchor="start" x="245.73" y="-15.4" font-family="sans-serif" font-size="14.00"> &#160;Module</text>
<polygon fill="#80b1d3" stroke="transparent" points="308,-10 308,-30 328,-30 328,-10 308,-10"/>
<text text-anchor="start" x="331.78" y="-15.4" font-family="sans-serif" font-size="14.00"> &#160;Bootstrap</text>
<polygon fill="#fdb462" stroke="transparent" points="405,-10 405,-30 425,-30 425,-10 405,-10"/>
<text text-anchor="start" x="428.67" y="-15.4" font-family="sans-serif" font-size="14.00"> &#160;Providers</text>
<polygon fill="#fb8072" stroke="transparent" points="501,-10 501,-30 521,-30 521,-10 501,-10"/>
<text text-anchor="start" x="524.73" y="-15.4" font-family="sans-serif" font-size="14.00"> &#160;Exports</text>
<g id="clust1" class="cluster">
<title>cluster_BookModule</title>
<polygon fill="none" stroke="black" stroke-dasharray="1,5" points="8,-70 8,-268 678,-268 678,-70 8,-70"/>
</g>
<g id="clust6" class="cluster">
<title>cluster_BookModule_providers</title>
<polygon fill="none" stroke="black" points="244,-78 244,-130 670,-130 670,-78 244,-78"/>
</g>
<g id="clust3" class="cluster">
<title>cluster_BookModule_imports</title>
<polygon fill="none" stroke="black" points="16,-78 16,-130 236,-130 236,-78 16,-78"/>
</g>
<g id="clust4" class="cluster">
<title>cluster_BookModule_exports</title>
<polygon fill="none" stroke="black" points="201,-208 201,-260 421,-260 421,-208 201,-208"/>
</g>
<!-- RecordModule -->
<g id="node1" class="node">
<title>RecordModule</title>
<polygon fill="#8dd3c7" stroke="black" points="227.98,-122 224.98,-126 203.98,-126 200.98,-122 128.02,-122 128.02,-86 227.98,-86 227.98,-122"/>
<text text-anchor="middle" x="178" y="-99.8" font-family="Times,serif" font-size="14.00">RecordModule</text>
</g>
<!-- BookModule -->
<g id="node3" class="node">
<title>BookModule</title>
<polygon fill="#8dd3c7" stroke="black" points="354.89,-187 351.89,-191 330.89,-191 327.89,-187 265.11,-187 265.11,-151 354.89,-151 354.89,-187"/>
<text text-anchor="middle" x="310" y="-164.8" font-family="Times,serif" font-size="14.00">BookModule</text>
</g>
<!-- RecordModule&#45;&gt;BookModule -->
<g id="edge1" class="edge">
<title>RecordModule&#45;&gt;BookModule</title>
<path fill="none" stroke="black" d="M218.54,-122.02C218.54,-139.37 218.54,-163 218.54,-163 218.54,-163 255.07,-163 255.07,-163"/>
<polygon fill="black" stroke="black" points="255.07,-166.5 265.07,-163 255.07,-159.5 255.07,-166.5"/>
</g>
<!-- UserModule -->
<g id="node2" class="node">
<title>UserModule</title>
<polygon fill="#8dd3c7" stroke="black" points="109.98,-122 106.98,-126 85.98,-126 82.98,-122 24.02,-122 24.02,-86 109.98,-86 109.98,-122"/>
<text text-anchor="middle" x="67" y="-99.8" font-family="Times,serif" font-size="14.00">UserModule</text>
</g>
<!-- UserModule&#45;&gt;BookModule -->
<g id="edge2" class="edge">
<title>UserModule&#45;&gt;BookModule</title>
<path fill="none" stroke="black" d="M67,-122.28C67,-143.32 67,-175 67,-175 67,-175 254.86,-175 254.86,-175"/>
<polygon fill="black" stroke="black" points="254.86,-178.5 264.86,-175 254.86,-171.5 254.86,-178.5"/>
</g>
<!-- BookModule  -->
<g id="node4" class="node">
<title>BookModule </title>
<polygon fill="#fb8072" stroke="black" points="412.89,-252 319.11,-252 319.11,-216 412.89,-216 412.89,-252"/>
<text text-anchor="middle" x="366" y="-229.8" font-family="Times,serif" font-size="14.00">BookModule </text>
</g>
<!-- BookModule&#45;&gt;BookModule  -->
<g id="edge3" class="edge">
<title>BookModule&#45;&gt;BookModule </title>
<path fill="none" stroke="black" stroke-dasharray="5,2" d="M337.12,-187.11C337.12,-187.11 337.12,-205.99 337.12,-205.99"/>
<polygon fill="black" stroke="black" points="333.63,-205.99 337.12,-215.99 340.63,-205.99 333.63,-205.99"/>
</g>
<!-- BookService  -->
<g id="node5" class="node">
<title>BookService </title>
<polygon fill="#fb8072" stroke="black" points="300.81,-252 209.19,-252 209.19,-216 300.81,-216 300.81,-252"/>
<text text-anchor="middle" x="255" y="-229.8" font-family="Times,serif" font-size="14.00">BookService </text>
</g>
<!-- BookModule&#45;&gt;BookService  -->
<g id="edge4" class="edge">
<title>BookModule&#45;&gt;BookService </title>
<path fill="none" stroke="black" stroke-dasharray="5,2" d="M282.98,-187.11C282.98,-187.11 282.98,-205.99 282.98,-205.99"/>
<polygon fill="black" stroke="black" points="279.48,-205.99 282.98,-215.99 286.48,-205.99 279.48,-205.99"/>
</g>
<!-- BookService -->
<g id="node6" class="node">
<title>BookService</title>
<ellipse fill="#fdb462" stroke="black" cx="601" cy="-104" rx="60.84" ry="18"/>
<text text-anchor="middle" x="601" y="-99.8" font-family="Times,serif" font-size="14.00">BookService</text>
</g>
<!-- BookService&#45;&gt;BookModule -->
<g id="edge5" class="edge">
<title>BookService&#45;&gt;BookModule</title>
<path fill="none" stroke="black" d="M601,-122.28C601,-143.32 601,-175 601,-175 601,-175 365.15,-175 365.15,-175"/>
<polygon fill="black" stroke="black" points="365.15,-171.5 355.15,-175 365.15,-178.5 365.15,-171.5"/>
</g>
<!-- RecordService -->
<g id="node7" class="node">
<title>RecordService</title>
<ellipse fill="#fdb462" stroke="black" cx="454" cy="-104" rx="67.75" ry="18"/>
<text text-anchor="middle" x="454" y="-99.8" font-family="Times,serif" font-size="14.00">RecordService</text>
</g>
<!-- RecordService&#45;&gt;BookModule -->
<g id="edge6" class="edge">
<title>RecordService&#45;&gt;BookModule</title>
<path fill="none" stroke="black" d="M399.41,-114.82C399.41,-131.85 399.41,-163 399.41,-163 399.41,-163 364.97,-163 364.97,-163"/>
<polygon fill="black" stroke="black" points="364.97,-159.5 354.97,-163 364.97,-166.5 364.97,-159.5"/>
</g>
<!-- UserService -->
<g id="node8" class="node">
<title>UserService</title>
<ellipse fill="#fdb462" stroke="black" cx="310" cy="-104" rx="58.44" ry="18"/>
<text text-anchor="middle" x="310" y="-99.8" font-family="Times,serif" font-size="14.00">UserService</text>
</g>
<!-- UserService&#45;&gt;BookModule -->
<g id="edge7" class="edge">
<title>UserService&#45;&gt;BookModule</title>
<path fill="none" stroke="black" d="M310,-122.11C310,-122.11 310,-140.99 310,-140.99"/>
<polygon fill="black" stroke="black" points="306.5,-140.99 310,-150.99 313.5,-140.99 306.5,-140.99"/>
</g>
</g>
</svg>
