<?xml version="1.0" encoding="UTF-8" standalone="no"?>
<!DOCTYPE svg PUBLIC "-//W3C//DTD SVG 1.1//EN"
 "http://www.w3.org/Graphics/SVG/1.1/DTD/svg11.dtd">
<!-- Generated by graphviz version 2.47.0 (20210316.0004)
 -->
<!-- Title: dependencies Pages: 1 -->
<svg width="694pt" height="284pt"
 viewBox="0.00 0.00 694.00 284.00" xmlns="http://www.w3.org/2000/svg" xmlns:xlink="http://www.w3.org/1999/xlink">
<g id="graph0" class="graph" transform="scale(1 1) rotate(0) translate(4 280)">
<title>dependencies</title>
<polygon fill="white" stroke="transparent" points="-4,4 -4,-280 690,-280 690,4 -4,4"/>
<text text-anchor="start" x="322.01" y="-42.4" font-family="sans-serif" font-weight="bold" font-size="14.00">Legend</text>
<polygon fill="#ffffb3" stroke="transparent" points="109,-10 109,-30 129,-30 129,-10 109,-10"/>
<text text-anchor="start" x="132.63" y="-15.4" font-family="sans-serif" font-size="14.00"> &#160;Declarations</text>
<polygon fill="#8dd3c7" stroke="transparent" points="222,-10 222,-30 242,-30 242,-10 222,-10"/>
<text text-anchor="start" x="245.73" y="-15.4" font-family="sans-serif" font-size="14.00"> &#160;Module</text>
<polygon fill="#80b1d3" stroke="transparent" points="308,-10 308,-30 328,-30 328,-10 308,-10"/>
<text text-anchor="start" x="331.78" y="-15.4" font-family="sans-serif" font-size="14.00"> &#160;Bootstrap</text>
<polygon fill="#fdb462" stroke="transparent" points="405,-10 405,-30 425,-30 425,-10 405,-10"/>
<text text-anchor="start" x="428.67" y="-15.4" font-family="sans-serif" font-size="14.00"> &#160;Providers</text>
<polygon fill="#fb8072" stroke="transparent" points="501,-10 501,-30 521,-30 521,-10 501,-10"/>
<text text-anchor="start" x="524.73" y="-15.4" font-family="sans-serif" font-size="14.00"> &#160;Exports</text>
<g id="clust1" class="cluster">
<title>cluster_BookModule</title>
<polygon fill="none" stroke="black" stroke-dasharray="1,5" points="8,-70 8,-268 678,-268 678,-70 8,-70"/>
</g>
<g id="clust3" class="cluster">
<title>cluster_BookModule_imports</title>
<polygon fill="none" stroke="black" points="450,-78 450,-130 670,-130 670,-78 450,-78"/>
</g>
<g id="clust4" class="cluster">
<title>cluster_BookModule_exports</title>
<polygon fill="none" stroke="black" points="264,-208 264,-260 484,-260 484,-208 264,-208"/>
</g>
<g id="clust6" class="cluster">
<title>cluster_BookModule_providers</title>
<polygon fill="none" stroke="black" points="16,-78 16,-130 442,-130 442,-78 16,-78"/>
</g>
<!-- RecordModule -->
<g id="node1" class="node">
<title>RecordModule</title>
<polygon fill="#8dd3c7" stroke="black" points="661.98,-122 658.98,-126 637.98,-126 634.98,-122 562.02,-122 562.02,-86 661.98,-86 661.98,-122"/>
<text text-anchor="middle" x="612" y="-99.8" font-family="Times,serif" font-size="14.00">RecordModule</text>
</g>
<!-- BookModule -->
<g id="node3" class="node">
<title>BookModule</title>
<polygon fill="#8dd3c7" stroke="black" points="417.89,-187 414.89,-191 393.89,-191 390.89,-187 328.11,-187 328.11,-151 417.89,-151 417.89,-187"/>
<text text-anchor="middle" x="373" y="-164.8" font-family="Times,serif" font-size="14.00">BookModule</text>
</g>
<!-- RecordModule&#45;&gt;BookModule -->
<g id="edge1" class="edge">
<title>RecordModule&#45;&gt;BookModule</title>
<path fill="none" stroke="black" d="M612,-122.28C612,-143.32 612,-175 612,-175 612,-175 427.95,-175 427.95,-175"/>
<polygon fill="black" stroke="black" points="427.95,-171.5 417.95,-175 427.95,-178.5 427.95,-171.5"/>
</g>
<!-- UserModule -->
<g id="node2" class="node">
<title>UserModule</title>
<polygon fill="#8dd3c7" stroke="black" points="543.98,-122 540.98,-126 519.98,-126 516.98,-122 458.02,-122 458.02,-86 543.98,-86 543.98,-122"/>
<text text-anchor="middle" x="501" y="-99.8" font-family="Times,serif" font-size="14.00">UserModule</text>
</g>
<!-- UserModule&#45;&gt;BookModule -->
<g id="edge2" class="edge">
<title>UserModule&#45;&gt;BookModule</title>
<path fill="none" stroke="black" d="M466.85,-122.02C466.85,-139.37 466.85,-163 466.85,-163 466.85,-163 428,-163 428,-163"/>
<polygon fill="black" stroke="black" points="428,-159.5 418,-163 428,-166.5 428,-159.5"/>
</g>
<!-- BookModule  -->
<g id="node4" class="node">
<title>BookModule </title>
<polygon fill="#fb8072" stroke="black" points="475.89,-252 382.11,-252 382.11,-216 475.89,-216 475.89,-252"/>
<text text-anchor="middle" x="429" y="-229.8" font-family="Times,serif" font-size="14.00">BookModule </text>
</g>
<!-- BookModule&#45;&gt;BookModule  -->
<g id="edge3" class="edge">
<title>BookModule&#45;&gt;BookModule </title>
<path fill="none" stroke="black" stroke-dasharray="5,2" d="M400.12,-187.11C400.12,-187.11 400.12,-205.99 400.12,-205.99"/>
<polygon fill="black" stroke="black" points="396.63,-205.99 400.12,-215.99 403.63,-205.99 396.63,-205.99"/>
</g>
<!-- BookService  -->
<g id="node5" class="node">
<title>BookService </title>
<polygon fill="#fb8072" stroke="black" points="363.81,-252 272.19,-252 272.19,-216 363.81,-216 363.81,-252"/>
<text text-anchor="middle" x="318" y="-229.8" font-family="Times,serif" font-size="14.00">BookService </text>
</g>
<!-- BookModule&#45;&gt;BookService  -->
<g id="edge4" class="edge">
<title>BookModule&#45;&gt;BookService </title>
<path fill="none" stroke="black" stroke-dasharray="5,2" d="M345.98,-187.11C345.98,-187.11 345.98,-205.99 345.98,-205.99"/>
<polygon fill="black" stroke="black" points="342.48,-205.99 345.98,-215.99 349.48,-205.99 342.48,-205.99"/>
</g>
<!-- BookService -->
<g id="node6" class="node">
<title>BookService</title>
<ellipse fill="#fdb462" stroke="black" cx="373" cy="-104" rx="60.84" ry="18"/>
<text text-anchor="middle" x="373" y="-99.8" font-family="Times,serif" font-size="14.00">BookService</text>
</g>
<!-- BookService&#45;&gt;BookModule -->
<g id="edge5" class="edge">
<title>BookService&#45;&gt;BookModule</title>
<path fill="none" stroke="black" d="M373,-122.11C373,-122.11 373,-140.99 373,-140.99"/>
<polygon fill="black" stroke="black" points="369.5,-140.99 373,-150.99 376.5,-140.99 369.5,-140.99"/>
</g>
<!-- RecordService -->
<g id="node7" class="node">
<title>RecordService</title>
<ellipse fill="#fdb462" stroke="black" cx="226" cy="-104" rx="67.75" ry="18"/>
<text text-anchor="middle" x="226" y="-99.8" font-family="Times,serif" font-size="14.00">RecordService</text>
</g>
<!-- RecordService&#45;&gt;BookModule -->
<g id="edge6" class="edge">
<title>RecordService&#45;&gt;BookModule</title>
<path fill="none" stroke="black" d="M282.99,-114.01C282.99,-130.84 282.99,-163 282.99,-163 282.99,-163 317.99,-163 317.99,-163"/>
<polygon fill="black" stroke="black" points="317.99,-166.5 327.99,-163 317.99,-159.5 317.99,-166.5"/>
</g>
<!-- UserService -->
<g id="node8" class="node">
<title>UserService</title>
<ellipse fill="#fdb462" stroke="black" cx="82" cy="-104" rx="58.44" ry="18"/>
<text text-anchor="middle" x="82" y="-99.8" font-family="Times,serif" font-size="14.00">UserService</text>
</g>
<!-- UserService&#45;&gt;BookModule -->
<g id="edge7" class="edge">
<title>UserService&#45;&gt;BookModule</title>
<path fill="none" stroke="black" d="M82,-122.28C82,-143.32 82,-175 82,-175 82,-175 317.85,-175 317.85,-175"/>
<polygon fill="black" stroke="black" points="317.85,-178.5 327.85,-175 317.85,-171.5 317.85,-178.5"/>
</g>
</g>
</svg>
