<?xml version="1.0" encoding="UTF-8" standalone="no"?>
<!DOCTYPE svg PUBLIC "-//W3C//DTD SVG 1.1//EN"
 "http://www.w3.org/Graphics/SVG/1.1/DTD/svg11.dtd">
<!-- Generated by graphviz version 2.47.0 (20210316.0004)
 -->
<!-- Title: dependencies Pages: 1 -->
<svg width="504pt" height="284pt"
 viewBox="0.00 0.00 504.00 284.00" xmlns="http://www.w3.org/2000/svg" xmlns:xlink="http://www.w3.org/1999/xlink">
<g id="graph0" class="graph" transform="scale(1 1) rotate(0) translate(4 280)">
<title>dependencies</title>
<polygon fill="white" stroke="transparent" points="-4,4 -4,-280 500,-280 500,4 -4,4"/>
<text text-anchor="start" x="227.01" y="-42.4" font-family="sans-serif" font-weight="bold" font-size="14.00">Legend</text>
<polygon fill="#ffffb3" stroke="transparent" points="14,-10 14,-30 34,-30 34,-10 14,-10"/>
<text text-anchor="start" x="37.63" y="-15.4" font-family="sans-serif" font-size="14.00"> &#160;Declarations</text>
<polygon fill="#8dd3c7" stroke="transparent" points="127,-10 127,-30 147,-30 147,-10 127,-10"/>
<text text-anchor="start" x="150.73" y="-15.4" font-family="sans-serif" font-size="14.00"> &#160;Module</text>
<polygon fill="#80b1d3" stroke="transparent" points="213,-10 213,-30 233,-30 233,-10 213,-10"/>
<text text-anchor="start" x="236.78" y="-15.4" font-family="sans-serif" font-size="14.00"> &#160;Bootstrap</text>
<polygon fill="#fdb462" stroke="transparent" points="310,-10 310,-30 330,-30 330,-10 310,-10"/>
<text text-anchor="start" x="333.67" y="-15.4" font-family="sans-serif" font-size="14.00"> &#160;Providers</text>
<polygon fill="#fb8072" stroke="transparent" points="406,-10 406,-30 426,-30 426,-10 406,-10"/>
<text text-anchor="start" x="429.73" y="-15.4" font-family="sans-serif" font-size="14.00"> &#160;Exports</text>
<g id="clust1" class="cluster">
<title>cluster_RecordModule</title>
<polygon fill="none" stroke="black" stroke-dasharray="1,5" points="120,-70 120,-268 376,-268 376,-70 120,-70"/>
</g>
<g id="clust4" class="cluster">
<title>cluster_RecordModule_exports</title>
<polygon fill="none" stroke="black" points="128,-208 128,-260 368,-260 368,-208 128,-208"/>
</g>
<g id="clust6" class="cluster">
<title>cluster_RecordModule_providers</title>
<polygon fill="none" stroke="black" points="172,-78 172,-130 324,-130 324,-78 172,-78"/>
</g>
<!-- RecordModule  -->
<g id="node1" class="node">
<title>RecordModule </title>
<polygon fill="#fb8072" stroke="black" points="359.98,-252 256.02,-252 256.02,-216 359.98,-216 359.98,-252"/>
<text text-anchor="middle" x="308" y="-229.8" font-family="Times,serif" font-size="14.00">RecordModule </text>
</g>
<!-- RecordService  -->
<g id="node2" class="node">
<title>RecordService </title>
<polygon fill="#fb8072" stroke="black" points="237.9,-252 136.1,-252 136.1,-216 237.9,-216 237.9,-252"/>
<text text-anchor="middle" x="187" y="-229.8" font-family="Times,serif" font-size="14.00">RecordService </text>
</g>
<!-- RecordModule -->
<g id="node3" class="node">
<title>RecordModule</title>
<polygon fill="#8dd3c7" stroke="black" points="297.98,-187 294.98,-191 273.98,-191 270.98,-187 198.02,-187 198.02,-151 297.98,-151 297.98,-187"/>
<text text-anchor="middle" x="248" y="-164.8" font-family="Times,serif" font-size="14.00">RecordModule</text>
</g>
<!-- RecordModule&#45;&gt;RecordModule  -->
<g id="edge1" class="edge">
<title>RecordModule&#45;&gt;RecordModule </title>
<path fill="none" stroke="black" stroke-dasharray="5,2" d="M277.12,-187.11C277.12,-187.11 277.12,-205.99 277.12,-205.99"/>
<polygon fill="black" stroke="black" points="273.63,-205.99 277.12,-215.99 280.63,-205.99 273.63,-205.99"/>
</g>
<!-- RecordModule&#45;&gt;RecordService  -->
<g id="edge2" class="edge">
<title>RecordModule&#45;&gt;RecordService </title>
<path fill="none" stroke="black" stroke-dasharray="5,2" d="M217.98,-187.11C217.98,-187.11 217.98,-205.99 217.98,-205.99"/>
<polygon fill="black" stroke="black" points="214.48,-205.99 217.98,-215.99 221.48,-205.99 214.48,-205.99"/>
</g>
<!-- RecordService -->
<g id="node4" class="node">
<title>RecordService</title>
<ellipse fill="#fdb462" stroke="black" cx="248" cy="-104" rx="67.75" ry="18"/>
<text text-anchor="middle" x="248" y="-99.8" font-family="Times,serif" font-size="14.00">RecordService</text>
</g>
<!-- RecordService&#45;&gt;RecordModule -->
<g id="edge3" class="edge">
<title>RecordService&#45;&gt;RecordModule</title>
<path fill="none" stroke="black" d="M248,-122.11C248,-122.11 248,-140.99 248,-140.99"/>
<polygon fill="black" stroke="black" points="244.5,-140.99 248,-150.99 251.5,-140.99 244.5,-140.99"/>
</g>
</g>
</svg>
