<?xml version="1.0" encoding="UTF-8" standalone="no"?>
<!DOCTYPE svg PUBLIC "-//W3C//DTD SVG 1.1//EN"
 "http://www.w3.org/Graphics/SVG/1.1/DTD/svg11.dtd">
<!-- Generated by graphviz version 2.47.0 (20210316.0004)
 -->
<!-- Title: dependencies Pages: 1 -->
<svg width="748pt" height="284pt"
 viewBox="0.00 0.00 748.00 284.00" xmlns="http://www.w3.org/2000/svg" xmlns:xlink="http://www.w3.org/1999/xlink">
<g id="graph0" class="graph" transform="scale(1 1) rotate(0) translate(4 280)">
<title>dependencies</title>
<polygon fill="white" stroke="transparent" points="-4,4 -4,-280 744,-280 744,4 -4,4"/>
<text text-anchor="start" x="349.01" y="-42.4" font-family="sans-serif" font-weight="bold" font-size="14.00">Legend</text>
<polygon fill="#ffffb3" stroke="transparent" points="136,-10 136,-30 156,-30 156,-10 136,-10"/>
<text text-anchor="start" x="159.63" y="-15.4" font-family="sans-serif" font-size="14.00"> &#160;Declarations</text>
<polygon fill="#8dd3c7" stroke="transparent" points="249,-10 249,-30 269,-30 269,-10 249,-10"/>
<text text-anchor="start" x="272.73" y="-15.4" font-family="sans-serif" font-size="14.00"> &#160;Module</text>
<polygon fill="#80b1d3" stroke="transparent" points="335,-10 335,-30 355,-30 355,-10 335,-10"/>
<text text-anchor="start" x="358.78" y="-15.4" font-family="sans-serif" font-size="14.00"> &#160;Bootstrap</text>
<polygon fill="#fdb462" stroke="transparent" points="432,-10 432,-30 452,-30 452,-10 432,-10"/>
<text text-anchor="start" x="455.67" y="-15.4" font-family="sans-serif" font-size="14.00"> &#160;Providers</text>
<polygon fill="#fb8072" stroke="transparent" points="528,-10 528,-30 548,-30 548,-10 528,-10"/>
<text text-anchor="start" x="551.73" y="-15.4" font-family="sans-serif" font-size="14.00"> &#160;Exports</text>
<g id="clust1" class="cluster">
<title>cluster_CategoryModule</title>
<polygon fill="none" stroke="black" stroke-dasharray="1,5" points="8,-70 8,-268 732,-268 732,-70 8,-70"/>
</g>
<g id="clust4" class="cluster">
<title>cluster_CategoryModule_exports</title>
<polygon fill="none" stroke="black" points="257,-208 257,-260 518,-260 518,-208 257,-208"/>
</g>
<g id="clust3" class="cluster">
<title>cluster_CategoryModule_imports</title>
<polygon fill="none" stroke="black" points="618,-78 618,-130 724,-130 724,-78 618,-78"/>
</g>
<g id="clust6" class="cluster">
<title>cluster_CategoryModule_providers</title>
<polygon fill="none" stroke="black" points="16,-78 16,-130 610,-130 610,-78 16,-78"/>
</g>
<!-- BookModule -->
<g id="node1" class="node">
<title>BookModule</title>
<polygon fill="#8dd3c7" stroke="black" points="715.89,-122 712.89,-126 691.89,-126 688.89,-122 626.11,-122 626.11,-86 715.89,-86 715.89,-122"/>
<text text-anchor="middle" x="671" y="-99.8" font-family="Times,serif" font-size="14.00">BookModule</text>
</g>
<!-- CategoryModule -->
<g id="node2" class="node">
<title>CategoryModule</title>
<polygon fill="#8dd3c7" stroke="black" points="442.37,-187 439.37,-191 418.37,-191 415.37,-187 331.63,-187 331.63,-151 442.37,-151 442.37,-187"/>
<text text-anchor="middle" x="387" y="-164.8" font-family="Times,serif" font-size="14.00">CategoryModule</text>
</g>
<!-- BookModule&#45;&gt;CategoryModule -->
<g id="edge1" class="edge">
<title>BookModule&#45;&gt;CategoryModule</title>
<path fill="none" stroke="black" d="M671,-122.28C671,-143.32 671,-175 671,-175 671,-175 452.43,-175 452.43,-175"/>
<polygon fill="black" stroke="black" points="452.43,-171.5 442.43,-175 452.43,-178.5 452.43,-171.5"/>
</g>
<!-- CategoryModule  -->
<g id="node3" class="node">
<title>CategoryModule </title>
<polygon fill="#fb8072" stroke="black" points="510.37,-252 395.63,-252 395.63,-216 510.37,-216 510.37,-252"/>
<text text-anchor="middle" x="453" y="-229.8" font-family="Times,serif" font-size="14.00">CategoryModule </text>
</g>
<!-- CategoryModule&#45;&gt;CategoryModule  -->
<g id="edge2" class="edge">
<title>CategoryModule&#45;&gt;CategoryModule </title>
<path fill="none" stroke="black" stroke-dasharray="5,2" d="M419.12,-187.11C419.12,-187.11 419.12,-205.99 419.12,-205.99"/>
<polygon fill="black" stroke="black" points="415.63,-205.99 419.12,-215.99 422.63,-205.99 415.63,-205.99"/>
</g>
<!-- CategoryService  -->
<g id="node4" class="node">
<title>CategoryService </title>
<polygon fill="#fb8072" stroke="black" points="377.29,-252 264.71,-252 264.71,-216 377.29,-216 377.29,-252"/>
<text text-anchor="middle" x="321" y="-229.8" font-family="Times,serif" font-size="14.00">CategoryService </text>
</g>
<!-- CategoryModule&#45;&gt;CategoryService  -->
<g id="edge3" class="edge">
<title>CategoryModule&#45;&gt;CategoryService </title>
<path fill="none" stroke="black" stroke-dasharray="5,2" d="M354.48,-187.11C354.48,-187.11 354.48,-205.99 354.48,-205.99"/>
<polygon fill="black" stroke="black" points="350.98,-205.99 354.48,-215.99 357.98,-205.99 350.98,-205.99"/>
</g>
<!-- BookService -->
<g id="node5" class="node">
<title>BookService</title>
<ellipse fill="#fdb462" stroke="black" cx="541" cy="-104" rx="60.84" ry="18"/>
<text text-anchor="middle" x="541" y="-99.8" font-family="Times,serif" font-size="14.00">BookService</text>
</g>
<!-- BookService&#45;&gt;CategoryModule -->
<g id="edge4" class="edge">
<title>BookService&#45;&gt;CategoryModule</title>
<path fill="none" stroke="black" d="M495.13,-115.94C495.13,-133.18 495.13,-163 495.13,-163 495.13,-163 452.65,-163 452.65,-163"/>
<polygon fill="black" stroke="black" points="452.65,-159.5 442.65,-163 452.65,-166.5 452.65,-159.5"/>
</g>
<!-- CategoryService -->
<g id="node6" class="node">
<title>CategoryService</title>
<ellipse fill="#fdb462" stroke="black" cx="387" cy="-104" rx="75.28" ry="18"/>
<text text-anchor="middle" x="387" y="-99.8" font-family="Times,serif" font-size="14.00">CategoryService</text>
</g>
<!-- CategoryService&#45;&gt;CategoryModule -->
<g id="edge5" class="edge">
<title>CategoryService&#45;&gt;CategoryModule</title>
<path fill="none" stroke="black" d="M387,-122.11C387,-122.11 387,-140.99 387,-140.99"/>
<polygon fill="black" stroke="black" points="383.5,-140.99 387,-150.99 390.5,-140.99 383.5,-140.99"/>
</g>
<!-- RecordService -->
<g id="node7" class="node">
<title>RecordService</title>
<ellipse fill="#fdb462" stroke="black" cx="226" cy="-104" rx="67.75" ry="18"/>
<text text-anchor="middle" x="226" y="-99.8" font-family="Times,serif" font-size="14.00">RecordService</text>
</g>
<!-- RecordService&#45;&gt;CategoryModule -->
<g id="edge6" class="edge">
<title>RecordService&#45;&gt;CategoryModule</title>
<path fill="none" stroke="black" d="M279.24,-115.38C279.24,-132.52 279.24,-163 279.24,-163 279.24,-163 321.54,-163 321.54,-163"/>
<polygon fill="black" stroke="black" points="321.54,-166.5 331.54,-163 321.54,-159.5 321.54,-166.5"/>
</g>
<!-- UserService -->
<g id="node8" class="node">
<title>UserService</title>
<ellipse fill="#fdb462" stroke="black" cx="82" cy="-104" rx="58.44" ry="18"/>
<text text-anchor="middle" x="82" y="-99.8" font-family="Times,serif" font-size="14.00">UserService</text>
</g>
<!-- UserService&#45;&gt;CategoryModule -->
<g id="edge7" class="edge">
<title>UserService&#45;&gt;CategoryModule</title>
<path fill="none" stroke="black" d="M82,-122.28C82,-143.32 82,-175 82,-175 82,-175 321.41,-175 321.41,-175"/>
<polygon fill="black" stroke="black" points="321.41,-178.5 331.41,-175 321.41,-171.5 321.41,-178.5"/>
</g>
</g>
</svg>
